<svg width="112" height="39" viewBox="0 0 112 39" fill="none" xmlns="http://www.w3.org/2000/svg">
<g clip-path="url(#clip0)">
<path fill-rule="evenodd" clip-rule="evenodd" d="M21.1411 4H2.64264C1.18919 4 0 5.24865 0 6.77477V26.1982C0 27.7243 1.18919 28.973 2.64264 28.973H21.1411C22.5946 28.973 23.7838 27.7243 23.7838 26.1982V6.77477C23.7838 5.24865 22.5946 4 21.1411 4ZM6.60661 23.4234C5.87988 23.4234 5.28529 22.7991 5.28529 22.036V15.0991C5.28529 14.336 5.87988 13.7117 6.60661 13.7117C7.33333 13.7117 7.92793 14.336 7.92793 15.0991V22.036C7.92793 22.7991 7.33333 23.4234 6.60661 23.4234ZM11.8919 23.4234C11.1652 23.4234 10.5706 22.7991 10.5706 22.036V10.9369C10.5706 10.1739 11.1652 9.54955 11.8919 9.54955C12.6186 9.54955 13.2132 10.1739 13.2132 10.9369V22.036C13.2132 22.7991 12.6186 23.4234 11.8919 23.4234ZM17.1772 23.4234C16.4505 23.4234 15.8559 22.7991 15.8559 22.036V19.2613C15.8559 18.4982 16.4505 17.8739 17.1772 17.8739C17.9039 17.8739 18.4985 18.4982 18.4985 19.2613V22.036C18.4985 22.7991 17.9039 23.4234 17.1772 23.4234Z" fill="white"/>
</g>
<path d="M43.7872 19.751C43.7872 20.4753 43.6488 21.1548 43.3721 21.7896C43.0954 22.4243 42.717 22.9818 42.2369 23.4619C41.7649 23.9339 41.2115 24.3083 40.5767 24.585C39.942 24.8617 39.2624 25 38.5381 25H29.7857V7.49512H38.5381C39.2624 7.49512 39.942 7.63346 40.5767 7.91016C41.2115 8.18685 41.7649 8.56527 42.2369 9.04541C42.717 9.51742 43.0954 10.0708 43.3721 10.7056C43.6488 11.3403 43.7872 12.0199 43.7872 12.7441C43.7872 13.0697 43.7424 13.4033 43.6529 13.7451C43.5634 14.0869 43.4372 14.4165 43.2745 14.7339C43.1117 15.0513 42.9164 15.3402 42.6885 15.6006C42.4607 15.861 42.2084 16.0767 41.9317 16.2476C42.2165 16.4022 42.4729 16.6138 42.7007 16.8823C42.9286 17.1427 43.1239 17.4316 43.2867 17.749C43.4494 18.0664 43.5715 18.4001 43.6529 18.75C43.7424 19.0918 43.7872 19.4255 43.7872 19.751ZM33.2891 21.4966H38.5381C38.7823 21.4966 39.0102 21.4518 39.2217 21.3623C39.4333 21.2728 39.6164 21.1507 39.7711 20.9961C39.9338 20.8333 40.06 20.6462 40.1495 20.4346C40.239 20.223 40.2838 19.9951 40.2838 19.751C40.2838 19.5068 40.239 19.279 40.1495 19.0674C40.06 18.8558 39.9338 18.6727 39.7711 18.5181C39.6164 18.3553 39.4333 18.2292 39.2217 18.1396C39.0102 18.0501 38.7823 18.0054 38.5381 18.0054H33.2891V21.4966ZM33.2891 14.502H38.5381C38.7823 14.502 39.0102 14.4572 39.2217 14.3677C39.4333 14.2782 39.6164 14.1561 39.7711 14.0015C39.9338 13.8387 40.06 13.6515 40.1495 13.4399C40.239 13.2202 40.2838 12.9883 40.2838 12.7441C40.2838 12.5 40.239 12.2721 40.1495 12.0605C40.06 11.849 39.9338 11.6659 39.7711 11.5112C39.6164 11.3485 39.4333 11.2223 39.2217 11.1328C39.0102 11.0433 38.7823 10.9985 38.5381 10.9985H33.2891V14.502ZM45.4107 12.7441C45.4107 12.0199 45.5491 11.3403 45.8257 10.7056C46.1024 10.0708 46.4768 9.51742 46.9488 9.04541C47.4289 8.56527 47.9864 8.18685 48.6212 7.91016C49.2559 7.63346 49.9354 7.49512 50.6597 7.49512H58.692V10.9985H50.6597C50.4156 10.9985 50.1877 11.0433 49.9761 11.1328C49.7645 11.2223 49.5774 11.3485 49.4146 11.5112C49.26 11.6659 49.1379 11.849 49.0484 12.0605C48.9589 12.2721 48.9141 12.5 48.9141 12.7441C48.9141 12.9883 48.9589 13.2202 49.0484 13.4399C49.1379 13.6515 49.26 13.8387 49.4146 14.0015C49.5774 14.1561 49.7645 14.2782 49.9761 14.3677C50.1877 14.4572 50.4156 14.502 50.6597 14.502H54.1631C54.8874 14.502 55.567 14.6403 56.2017 14.917C56.8446 15.1855 57.4021 15.5599 57.8741 16.04C58.3542 16.512 58.7286 17.0695 58.9971 17.7124C59.2738 18.3472 59.4122 19.0267 59.4122 19.751C59.4122 20.4753 59.2738 21.1548 58.9971 21.7896C58.7286 22.4243 58.3542 22.9818 57.8741 23.4619C57.4021 23.9339 56.8446 24.3083 56.2017 24.585C55.567 24.8617 54.8874 25 54.1631 25H46.3873V21.4966H54.1631C54.4073 21.4966 54.6352 21.4518 54.8467 21.3623C55.0583 21.2728 55.2414 21.1507 55.3961 20.9961C55.5588 20.8333 55.685 20.6462 55.7745 20.4346C55.864 20.223 55.9088 19.9951 55.9088 19.751C55.9088 19.5068 55.864 19.279 55.7745 19.0674C55.685 18.8558 55.5588 18.6727 55.3961 18.5181C55.2414 18.3553 55.0583 18.2292 54.8467 18.1396C54.6352 18.0501 54.4073 18.0054 54.1631 18.0054H50.6597C49.9354 18.0054 49.2559 17.867 48.6212 17.5903C47.9864 17.3136 47.4289 16.9393 46.9488 16.4673C46.4768 15.9871 46.1024 15.4297 45.8257 14.7949C45.5491 14.152 45.4107 13.4684 45.4107 12.7441ZM72.022 18.0054V14.502C72.022 14.0218 71.9284 13.5701 71.7413 13.147C71.5622 12.7157 71.314 12.3413 70.9966 12.0239C70.6793 11.7065 70.3049 11.4583 69.8736 11.2793C69.4504 11.0921 68.9988 10.9985 68.5186 10.9985C68.0385 10.9985 67.5827 11.0921 67.1514 11.2793C66.7283 11.4583 66.358 11.7065 66.0406 12.0239C65.7232 12.3413 65.4709 12.7157 65.2838 13.147C65.1047 13.5701 65.0152 14.0218 65.0152 14.502V18.0054H72.022ZM75.5255 25H72.022V21.4966H65.0152V25H61.524V14.502C61.524 13.5335 61.7071 12.6261 62.0733 11.7798C62.4395 10.9253 62.9359 10.1807 63.5626 9.5459C64.1973 8.91113 64.9379 8.41064 65.7842 8.04443C66.6387 7.67822 67.5502 7.49512 68.5186 7.49512C69.487 7.49512 70.3944 7.67822 71.2408 8.04443C72.0953 8.41064 72.8399 8.91113 73.4747 9.5459C74.1094 10.1807 74.6099 10.9253 74.9761 11.7798C75.3423 12.6261 75.5255 13.5335 75.5255 14.502V25ZM81.5679 29.9805H78.211V11.9263H79.0167L80.3472 13.501C80.6483 13.2161 80.9779 12.9476 81.336 12.6953C81.6941 12.443 82.0644 12.2274 82.4468 12.0483C82.8375 11.8612 83.2403 11.7147 83.6553 11.6089C84.0704 11.5031 84.4895 11.4502 84.9127 11.4502C85.8323 11.4502 86.6949 11.617 87.5005 11.9507C88.3144 12.2762 89.0224 12.7401 89.6246 13.3423C90.2349 13.9445 90.7151 14.6729 91.065 15.5273C91.4149 16.3737 91.5899 17.3136 91.5899 18.3472C91.5899 19.4214 91.4149 20.3898 91.065 21.2524C90.7151 22.1069 90.2349 22.8353 89.6246 23.4375C89.0224 24.0316 88.3144 24.4873 87.5005 24.8047C86.6949 25.1221 85.8323 25.2808 84.9127 25.2808C84.6197 25.2808 84.3267 25.2482 84.0338 25.1831C83.7489 25.118 83.4641 25.0326 83.1793 24.9268C82.9026 24.8128 82.6259 24.6867 82.3492 24.5483C82.0806 24.41 81.8202 24.2676 81.5679 24.1211V29.9805ZM88.2452 18.3472C88.2452 17.7938 88.1557 17.2974 87.9766 16.8579C87.8057 16.4185 87.5697 16.0482 87.2686 15.7471C86.9675 15.4378 86.6135 15.2018 86.2066 15.0391C85.7997 14.8763 85.3684 14.7949 84.9127 14.7949C84.4569 14.7949 84.0256 14.8763 83.6187 15.0391C83.22 15.2018 82.87 15.4378 82.5689 15.7471C82.2678 16.0482 82.0277 16.4185 81.8487 16.8579C81.6778 17.2974 81.5923 17.7938 81.5923 18.3472C81.5923 18.8761 81.6778 19.3604 81.8487 19.7998C82.0277 20.2393 82.2678 20.6136 82.5689 20.9229C82.87 21.2321 83.22 21.4722 83.6187 21.6431C84.0256 21.814 84.4569 21.8994 84.9127 21.8994C85.3684 21.8994 85.7997 21.814 86.2066 21.6431C86.6135 21.4722 86.9675 21.2321 87.2686 20.9229C87.5697 20.6136 87.8057 20.2393 87.9766 19.7998C88.1557 19.3604 88.2452 18.8761 88.2452 18.3472ZM96.8023 29.9805H93.4454V11.9263H94.251L95.5816 13.501C95.8827 13.2161 96.2123 12.9476 96.5704 12.6953C96.9284 12.443 97.2987 12.2274 97.6812 12.0483C98.0718 11.8612 98.4747 11.7147 98.8897 11.6089C99.3047 11.5031 99.7239 11.4502 100.147 11.4502C101.067 11.4502 101.929 11.617 102.735 11.9507C103.549 12.2762 104.257 12.7401 104.859 13.3423C105.469 13.9445 105.949 14.6729 106.299 15.5273C106.649 16.3737 106.824 17.3136 106.824 18.3472C106.824 19.4214 106.649 20.3898 106.299 21.2524C105.949 22.1069 105.469 22.8353 104.859 23.4375C104.257 24.0316 103.549 24.4873 102.735 24.8047C101.929 25.1221 101.067 25.2808 100.147 25.2808C99.8541 25.2808 99.5611 25.2482 99.2681 25.1831C98.9833 25.118 98.6985 25.0326 98.4136 24.9268C98.1369 24.8128 97.8602 24.6867 97.5836 24.5483C97.315 24.41 97.0546 24.2676 96.8023 24.1211V29.9805ZM103.48 18.3472C103.48 17.7938 103.39 17.2974 103.211 16.8579C103.04 16.4185 102.804 16.0482 102.503 15.7471C102.202 15.4378 101.848 15.2018 101.441 15.0391C101.034 14.8763 100.603 14.7949 100.147 14.7949C99.6913 14.7949 99.26 14.8763 98.8531 15.0391C98.4543 15.2018 98.1044 15.4378 97.8033 15.7471C97.5022 16.0482 97.2621 16.4185 97.0831 16.8579C96.9122 17.2974 96.8267 17.7938 96.8267 18.3472C96.8267 18.8761 96.9122 19.3604 97.0831 19.7998C97.2621 20.2393 97.5022 20.6136 97.8033 20.9229C98.1044 21.2321 98.4543 21.4722 98.8531 21.6431C99.26 21.814 99.6913 21.8994 100.147 21.8994C100.603 21.8994 101.034 21.814 101.441 21.6431C101.848 21.4722 102.202 21.2321 102.503 20.9229C102.804 20.6136 103.04 20.2393 103.211 19.7998C103.39 19.3604 103.48 18.8761 103.48 18.3472Z" fill="white"/>
<defs>
<clipPath id="clip0">
<rect width="23.7838" height="24.973" fill="white" transform="translate(0 4)"/>
</clipPath>
</defs>
</svg>
