<svg width="114" height="46" viewBox="0 0 114 46" fill="none" xmlns="http://www.w3.org/2000/svg">
<g clip-path="url(#clip0)">
<g clip-path="url(#clip1)">
<path fill-rule="evenodd" clip-rule="evenodd" d="M23.1411 11H4.64264C3.18919 11 2 12.2486 2 13.7748V33.1982C2 34.7243 3.18919 35.973 4.64264 35.973H23.1411C24.5946 35.973 25.7838 34.7243 25.7838 33.1982V13.7748C25.7838 12.2486 24.5946 11 23.1411 11ZM8.60661 30.4234C7.87988 30.4234 7.28529 29.7991 7.28529 29.036V22.0991C7.28529 21.336 7.87988 20.7117 8.60661 20.7117C9.33333 20.7117 9.92793 21.336 9.92793 22.0991V29.036C9.92793 29.7991 9.33333 30.4234 8.60661 30.4234ZM13.8919 30.4234C13.1652 30.4234 12.5706 29.7991 12.5706 29.036V17.9369C12.5706 17.1739 13.1652 16.5495 13.8919 16.5495C14.6186 16.5495 15.2132 17.1739 15.2132 17.9369V29.036C15.2132 29.7991 14.6186 30.4234 13.8919 30.4234ZM19.1772 30.4234C18.4505 30.4234 17.8559 29.7991 17.8559 29.036V26.2613C17.8559 25.4982 18.4505 24.8739 19.1772 24.8739C19.9039 24.8739 20.4985 25.4982 20.4985 26.2613V29.036C20.4985 29.7991 19.9039 30.4234 19.1772 30.4234Z" fill="#3C4B64"/>
</g>
<path d="M45.7872 26.751C45.7872 27.4753 45.6488 28.1548 45.3721 28.7896C45.0954 29.4243 44.717 29.9818 44.2369 30.4619C43.7649 30.9339 43.2115 31.3083 42.5767 31.585C41.942 31.8617 41.2624 32 40.5381 32H31.7857V14.4951H40.5381C41.2624 14.4951 41.942 14.6335 42.5767 14.9102C43.2115 15.1868 43.7649 15.5653 44.2369 16.0454C44.717 16.5174 45.0954 17.0708 45.3721 17.7056C45.6488 18.3403 45.7872 19.0199 45.7872 19.7441C45.7872 20.0697 45.7424 20.4033 45.6529 20.7451C45.5634 21.0869 45.4372 21.4165 45.2745 21.7339C45.1117 22.0513 44.9164 22.3402 44.6885 22.6006C44.4607 22.861 44.2084 23.0767 43.9317 23.2476C44.2165 23.4022 44.4729 23.6138 44.7007 23.8823C44.9286 24.1427 45.1239 24.4316 45.2867 24.749C45.4494 25.0664 45.5715 25.4001 45.6529 25.75C45.7424 26.0918 45.7872 26.4255 45.7872 26.751ZM35.2891 28.4966H40.5381C40.7823 28.4966 41.0102 28.4518 41.2217 28.3623C41.4333 28.2728 41.6164 28.1507 41.7711 27.9961C41.9338 27.8333 42.06 27.6462 42.1495 27.4346C42.239 27.223 42.2838 26.9951 42.2838 26.751C42.2838 26.5068 42.239 26.279 42.1495 26.0674C42.06 25.8558 41.9338 25.6727 41.7711 25.5181C41.6164 25.3553 41.4333 25.2292 41.2217 25.1396C41.0102 25.0501 40.7823 25.0054 40.5381 25.0054H35.2891V28.4966ZM35.2891 21.502H40.5381C40.7823 21.502 41.0102 21.4572 41.2217 21.3677C41.4333 21.2782 41.6164 21.1561 41.7711 21.0015C41.9338 20.8387 42.06 20.6515 42.1495 20.4399C42.239 20.2202 42.2838 19.9883 42.2838 19.7441C42.2838 19.5 42.239 19.2721 42.1495 19.0605C42.06 18.849 41.9338 18.6659 41.7711 18.5112C41.6164 18.3485 41.4333 18.2223 41.2217 18.1328C41.0102 18.0433 40.7823 17.9985 40.5381 17.9985H35.2891V21.502ZM47.4107 19.7441C47.4107 19.0199 47.5491 18.3403 47.8257 17.7056C48.1024 17.0708 48.4768 16.5174 48.9488 16.0454C49.4289 15.5653 49.9864 15.1868 50.6212 14.9102C51.2559 14.6335 51.9354 14.4951 52.6597 14.4951H60.692V17.9985H52.6597C52.4156 17.9985 52.1877 18.0433 51.9761 18.1328C51.7645 18.2223 51.5774 18.3485 51.4146 18.5112C51.26 18.6659 51.1379 18.849 51.0484 19.0605C50.9589 19.2721 50.9141 19.5 50.9141 19.7441C50.9141 19.9883 50.9589 20.2202 51.0484 20.4399C51.1379 20.6515 51.26 20.8387 51.4146 21.0015C51.5774 21.1561 51.7645 21.2782 51.9761 21.3677C52.1877 21.4572 52.4156 21.502 52.6597 21.502H56.1631C56.8874 21.502 57.567 21.6403 58.2017 21.917C58.8446 22.1855 59.4021 22.5599 59.8741 23.04C60.3542 23.512 60.7286 24.0695 60.9971 24.7124C61.2738 25.3472 61.4122 26.0267 61.4122 26.751C61.4122 27.4753 61.2738 28.1548 60.9971 28.7896C60.7286 29.4243 60.3542 29.9818 59.8741 30.4619C59.4021 30.9339 58.8446 31.3083 58.2017 31.585C57.567 31.8617 56.8874 32 56.1631 32H48.3873V28.4966H56.1631C56.4073 28.4966 56.6352 28.4518 56.8467 28.3623C57.0583 28.2728 57.2414 28.1507 57.3961 27.9961C57.5588 27.8333 57.685 27.6462 57.7745 27.4346C57.864 27.223 57.9088 26.9951 57.9088 26.751C57.9088 26.5068 57.864 26.279 57.7745 26.0674C57.685 25.8558 57.5588 25.6727 57.3961 25.5181C57.2414 25.3553 57.0583 25.2292 56.8467 25.1396C56.6352 25.0501 56.4073 25.0054 56.1631 25.0054H52.6597C51.9354 25.0054 51.2559 24.867 50.6212 24.5903C49.9864 24.3136 49.4289 23.9393 48.9488 23.4673C48.4768 22.9871 48.1024 22.4297 47.8257 21.7949C47.5491 21.152 47.4107 20.4684 47.4107 19.7441ZM74.022 25.0054V21.502C74.022 21.0218 73.9284 20.5701 73.7413 20.147C73.5622 19.7157 73.314 19.3413 72.9966 19.0239C72.6793 18.7065 72.3049 18.4583 71.8736 18.2793C71.4504 18.0921 70.9988 17.9985 70.5186 17.9985C70.0385 17.9985 69.5827 18.0921 69.1514 18.2793C68.7283 18.4583 68.358 18.7065 68.0406 19.0239C67.7232 19.3413 67.4709 19.7157 67.2838 20.147C67.1047 20.5701 67.0152 21.0218 67.0152 21.502V25.0054H74.022ZM77.5255 32H74.022V28.4966H67.0152V32H63.524V21.502C63.524 20.5335 63.7071 19.6261 64.0733 18.7798C64.4395 17.9253 64.9359 17.1807 65.5626 16.5459C66.1973 15.9111 66.9379 15.4106 67.7842 15.0444C68.6387 14.6782 69.5502 14.4951 70.5186 14.4951C71.487 14.4951 72.3944 14.6782 73.2408 15.0444C74.0953 15.4106 74.8399 15.9111 75.4747 16.5459C76.1094 17.1807 76.6099 17.9253 76.9761 18.7798C77.3423 19.6261 77.5255 20.5335 77.5255 21.502V32ZM83.5679 36.9805H80.211V18.9263H81.0167L82.3472 20.501C82.6483 20.2161 82.9779 19.9476 83.336 19.6953C83.6941 19.443 84.0644 19.2274 84.4468 19.0483C84.8375 18.8612 85.2403 18.7147 85.6553 18.6089C86.0704 18.5031 86.4895 18.4502 86.9127 18.4502C87.8323 18.4502 88.6949 18.617 89.5005 18.9507C90.3144 19.2762 91.0224 19.7401 91.6246 20.3423C92.2349 20.9445 92.7151 21.6729 93.065 22.5273C93.4149 23.3737 93.5899 24.3136 93.5899 25.3472C93.5899 26.4214 93.4149 27.3898 93.065 28.2524C92.7151 29.1069 92.2349 29.8353 91.6246 30.4375C91.0224 31.0316 90.3144 31.4873 89.5005 31.8047C88.6949 32.1221 87.8323 32.2808 86.9127 32.2808C86.6197 32.2808 86.3267 32.2482 86.0338 32.1831C85.7489 32.118 85.4641 32.0326 85.1793 31.9268C84.9026 31.8128 84.6259 31.6867 84.3492 31.5483C84.0806 31.41 83.8202 31.2676 83.5679 31.1211V36.9805ZM90.2452 25.3472C90.2452 24.7938 90.1557 24.2974 89.9766 23.8579C89.8057 23.4185 89.5697 23.0482 89.2686 22.7471C88.9675 22.4378 88.6135 22.2018 88.2066 22.0391C87.7997 21.8763 87.3684 21.7949 86.9127 21.7949C86.4569 21.7949 86.0256 21.8763 85.6187 22.0391C85.22 22.2018 84.87 22.4378 84.5689 22.7471C84.2678 23.0482 84.0277 23.4185 83.8487 23.8579C83.6778 24.2974 83.5923 24.7938 83.5923 25.3472C83.5923 25.8761 83.6778 26.3604 83.8487 26.7998C84.0277 27.2393 84.2678 27.6136 84.5689 27.9229C84.87 28.2321 85.22 28.4722 85.6187 28.6431C86.0256 28.814 86.4569 28.8994 86.9127 28.8994C87.3684 28.8994 87.7997 28.814 88.2066 28.6431C88.6135 28.4722 88.9675 28.2321 89.2686 27.9229C89.5697 27.6136 89.8057 27.2393 89.9766 26.7998C90.1557 26.3604 90.2452 25.8761 90.2452 25.3472ZM98.8023 36.9805H95.4454V18.9263H96.251L97.5816 20.501C97.8827 20.2161 98.2123 19.9476 98.5704 19.6953C98.9284 19.443 99.2987 19.2274 99.6812 19.0483C100.072 18.8612 100.475 18.7147 100.89 18.6089C101.305 18.5031 101.724 18.4502 102.147 18.4502C103.067 18.4502 103.929 18.617 104.735 18.9507C105.549 19.2762 106.257 19.7401 106.859 20.3423C107.469 20.9445 107.949 21.6729 108.299 22.5273C108.649 23.3737 108.824 24.3136 108.824 25.3472C108.824 26.4214 108.649 27.3898 108.299 28.2524C107.949 29.1069 107.469 29.8353 106.859 30.4375C106.257 31.0316 105.549 31.4873 104.735 31.8047C103.929 32.1221 103.067 32.2808 102.147 32.2808C101.854 32.2808 101.561 32.2482 101.268 32.1831C100.983 32.118 100.698 32.0326 100.414 31.9268C100.137 31.8128 99.8602 31.6867 99.5836 31.5483C99.315 31.41 99.0546 31.2676 98.8023 31.1211V36.9805ZM105.48 25.3472C105.48 24.7938 105.39 24.2974 105.211 23.8579C105.04 23.4185 104.804 23.0482 104.503 22.7471C104.202 22.4378 103.848 22.2018 103.441 22.0391C103.034 21.8763 102.603 21.7949 102.147 21.7949C101.691 21.7949 101.26 21.8763 100.853 22.0391C100.454 22.2018 100.104 22.4378 99.8033 22.7471C99.5022 23.0482 99.2621 23.4185 99.0831 23.8579C98.9122 24.2974 98.8267 24.7938 98.8267 25.3472C98.8267 25.8761 98.9122 26.3604 99.0831 26.7998C99.2621 27.2393 99.5022 27.6136 99.8033 27.9229C100.104 28.2321 100.454 28.4722 100.853 28.6431C101.26 28.814 101.691 28.8994 102.147 28.8994C102.603 28.8994 103.034 28.814 103.441 28.6431C103.848 28.4722 104.202 28.2321 104.503 27.9229C104.804 27.6136 105.04 27.2393 105.211 26.7998C105.39 26.3604 105.48 25.8761 105.48 25.3472Z" fill="#3C4B64"/>
</g>
<defs>
<clipPath id="clip0">
<rect width="114" height="46" fill="white"/>
</clipPath>
<clipPath id="clip1">
<rect width="23.7838" height="24.973" fill="white" transform="translate(2 11)"/>
</clipPath>
</defs>
</svg>
