<svg width="35" height="34" viewBox="0 0 35 34" fill="none" xmlns="http://www.w3.org/2000/svg">
<path fill-rule="evenodd" clip-rule="evenodd" d="M24 1.14999H10C8.9 1.14999 8 2.09499 8 3.24999V17.95C8 19.105 8.9 20.05 10 20.05H24C25.1 20.05 26 19.105 26 17.95V3.24999C26 2.09499 25.1 1.14999 24 1.14999ZM13 15.85C12.45 15.85 12 15.3775 12 14.8V9.54998C12 8.97248 12.45 8.49998 13 8.49998C13.55 8.49998 14 8.97248 14 9.54998V14.8C14 15.3775 13.55 15.85 13 15.85ZM17 15.85C16.45 15.85 16 15.3775 16 14.8V6.39998C16 5.82248 16.45 5.34999 17 5.34999C17.55 5.34999 18 5.82248 18 6.39998V14.8C18 15.3775 17.55 15.85 17 15.85ZM21 15.85C20.45 15.85 20 15.3775 20 14.8V12.7C20 12.1225 20.45 11.65 21 11.65C21.55 11.65 22 12.1225 22 12.7V14.8C22 15.3775 21.55 15.85 21 15.85Z" fill="white"/>
<path d="M6.875 28.6904C6.875 29.0091 6.81413 29.3081 6.69238 29.5874C6.57064 29.8667 6.40413 30.112 6.19287 30.3232C5.98519 30.5309 5.7417 30.6956 5.4624 30.8174C5.18311 30.9391 4.88411 31 4.56543 31H0.714355V23.2979H4.56543C4.88411 23.2979 5.18311 23.3587 5.4624 23.4805C5.7417 23.6022 5.98519 23.7687 6.19287 23.98C6.40413 24.1877 6.57064 24.4312 6.69238 24.7104C6.81413 24.9897 6.875 25.2887 6.875 25.6074C6.875 25.7507 6.85531 25.8975 6.81592 26.0479C6.77653 26.1982 6.72103 26.3433 6.64941 26.4829C6.5778 26.6226 6.49186 26.7497 6.3916 26.8643C6.29134 26.9788 6.18034 27.0737 6.05859 27.1489C6.18392 27.217 6.29671 27.3101 6.39697 27.4282C6.49723 27.5428 6.58317 27.6699 6.65479 27.8096C6.7264 27.9492 6.78011 28.096 6.81592 28.25C6.85531 28.4004 6.875 28.5472 6.875 28.6904ZM2.25586 29.4585H4.56543C4.67285 29.4585 4.77311 29.4388 4.86621 29.3994C4.95931 29.36 5.03988 29.3063 5.10791 29.2383C5.17952 29.1667 5.23503 29.0843 5.27441 28.9912C5.3138 28.8981 5.3335 28.7979 5.3335 28.6904C5.3335 28.583 5.3138 28.4827 5.27441 28.3896C5.23503 28.2965 5.17952 28.216 5.10791 28.1479C5.03988 28.0763 4.95931 28.0208 4.86621 27.9814C4.77311 27.9421 4.67285 27.9224 4.56543 27.9224H2.25586V29.4585ZM2.25586 26.3809H4.56543C4.67285 26.3809 4.77311 26.3612 4.86621 26.3218C4.95931 26.2824 5.03988 26.2287 5.10791 26.1606C5.17952 26.089 5.23503 26.0067 5.27441 25.9136C5.3138 25.8169 5.3335 25.7148 5.3335 25.6074C5.3335 25.5 5.3138 25.3997 5.27441 25.3066C5.23503 25.2135 5.17952 25.133 5.10791 25.0649C5.03988 24.9933 4.95931 24.9378 4.86621 24.8984C4.77311 24.859 4.67285 24.8394 4.56543 24.8394H2.25586V26.3809ZM7.58936 25.6074C7.58936 25.2887 7.65023 24.9897 7.77197 24.7104C7.89372 24.4312 8.05843 24.1877 8.26611 23.98C8.47738 23.7687 8.72266 23.6022 9.00195 23.4805C9.28125 23.3587 9.58024 23.2979 9.89893 23.2979H13.4331V24.8394H9.89893C9.7915 24.8394 9.69124 24.859 9.59814 24.8984C9.50505 24.9378 9.42269 24.9933 9.35107 25.0649C9.28304 25.133 9.22933 25.2135 9.18994 25.3066C9.15055 25.3997 9.13086 25.5 9.13086 25.6074C9.13086 25.7148 9.15055 25.8169 9.18994 25.9136C9.22933 26.0067 9.28304 26.089 9.35107 26.1606C9.42269 26.2287 9.50505 26.2824 9.59814 26.3218C9.69124 26.3612 9.7915 26.3809 9.89893 26.3809H11.4404C11.7591 26.3809 12.0581 26.4417 12.3374 26.5635C12.6203 26.6816 12.8656 26.8464 13.0732 27.0576C13.2845 27.2653 13.4492 27.5106 13.5674 27.7935C13.6891 28.0728 13.75 28.3717 13.75 28.6904C13.75 29.0091 13.6891 29.3081 13.5674 29.5874C13.4492 29.8667 13.2845 30.112 13.0732 30.3232C12.8656 30.5309 12.6203 30.6956 12.3374 30.8174C12.0581 30.9391 11.7591 31 11.4404 31H8.01904V29.4585H11.4404C11.5479 29.4585 11.6481 29.4388 11.7412 29.3994C11.8343 29.36 11.9149 29.3063 11.9829 29.2383C12.0545 29.1667 12.11 29.0843 12.1494 28.9912C12.1888 28.8981 12.2085 28.7979 12.2085 28.6904C12.2085 28.583 12.1888 28.4827 12.1494 28.3896C12.11 28.2965 12.0545 28.216 11.9829 28.1479C11.9149 28.0763 11.8343 28.0208 11.7412 27.9814C11.6481 27.9421 11.5479 27.9224 11.4404 27.9224H9.89893C9.58024 27.9224 9.28125 27.8615 9.00195 27.7397C8.72266 27.618 8.47738 27.4533 8.26611 27.2456C8.05843 27.0343 7.89372 26.7891 7.77197 26.5098C7.65023 26.2269 7.58936 25.9261 7.58936 25.6074ZM19.2983 27.9224V26.3809C19.2983 26.1696 19.2572 25.9709 19.1748 25.7847C19.096 25.5949 18.9868 25.4302 18.8472 25.2905C18.7075 25.1509 18.5428 25.0417 18.353 24.9629C18.1668 24.8805 17.9681 24.8394 17.7568 24.8394C17.5456 24.8394 17.3451 24.8805 17.1553 24.9629C16.9691 25.0417 16.8062 25.1509 16.6665 25.2905C16.5269 25.4302 16.4159 25.5949 16.3335 25.7847C16.2547 25.9709 16.2153 26.1696 16.2153 26.3809V27.9224H19.2983ZM20.8398 31H19.2983V29.4585H16.2153V31H14.6792V26.3809C14.6792 25.9548 14.7598 25.5555 14.9209 25.1831C15.082 24.8071 15.3005 24.4795 15.5762 24.2002C15.8555 23.9209 16.1813 23.7007 16.5537 23.5396C16.9297 23.3784 17.3307 23.2979 17.7568 23.2979C18.1829 23.2979 18.5822 23.3784 18.9546 23.5396C19.3306 23.7007 19.6582 23.9209 19.9375 24.2002C20.2168 24.4795 20.437 24.8071 20.5981 25.1831C20.7593 25.5555 20.8398 25.9548 20.8398 26.3809V31ZM23.4985 33.1914H22.0215V25.2476H22.376L22.9614 25.9404C23.0939 25.8151 23.2389 25.6969 23.3965 25.5859C23.554 25.4749 23.717 25.38 23.8853 25.3013C24.0571 25.2189 24.2344 25.1545 24.417 25.1079C24.5996 25.0614 24.784 25.0381 24.9702 25.0381C25.3748 25.0381 25.7544 25.1115 26.1089 25.2583C26.467 25.4015 26.7785 25.6056 27.0435 25.8706C27.312 26.1356 27.5233 26.4561 27.6772 26.832C27.8312 27.2044 27.9082 27.618 27.9082 28.0728C27.9082 28.5454 27.8312 28.9715 27.6772 29.3511C27.5233 29.7271 27.312 30.0475 27.0435 30.3125C26.7785 30.5739 26.467 30.7744 26.1089 30.9141C25.7544 31.0537 25.3748 31.1235 24.9702 31.1235C24.8413 31.1235 24.7124 31.1092 24.5835 31.0806C24.4582 31.0519 24.3328 31.0143 24.2075 30.9678C24.0858 30.9176 23.964 30.8621 23.8423 30.8013C23.7241 30.7404 23.6095 30.6777 23.4985 30.6133V33.1914ZM26.4365 28.0728C26.4365 27.8293 26.3971 27.6108 26.3184 27.4175C26.2432 27.2241 26.1393 27.0612 26.0068 26.9287C25.8743 26.7926 25.7186 26.6888 25.5396 26.6172C25.3605 26.5456 25.1707 26.5098 24.9702 26.5098C24.7697 26.5098 24.5799 26.5456 24.4009 26.6172C24.2254 26.6888 24.0715 26.7926 23.939 26.9287C23.8065 27.0612 23.7008 27.2241 23.6221 27.4175C23.5469 27.6108 23.5093 27.8293 23.5093 28.0728C23.5093 28.3055 23.5469 28.5186 23.6221 28.7119C23.7008 28.9053 23.8065 29.07 23.939 29.2061C24.0715 29.3421 24.2254 29.4478 24.4009 29.5229C24.5799 29.5981 24.7697 29.6357 24.9702 29.6357C25.1707 29.6357 25.3605 29.5981 25.5396 29.5229C25.7186 29.4478 25.8743 29.3421 26.0068 29.2061C26.1393 29.07 26.2432 28.9053 26.3184 28.7119C26.3971 28.5186 26.4365 28.3055 26.4365 28.0728ZM30.2017 33.1914H28.7246V25.2476H29.0791L29.6646 25.9404C29.797 25.8151 29.9421 25.6969 30.0996 25.5859C30.2572 25.4749 30.4201 25.38 30.5884 25.3013C30.7603 25.2189 30.9375 25.1545 31.1201 25.1079C31.3027 25.0614 31.4871 25.0381 31.6733 25.0381C32.078 25.0381 32.4575 25.1115 32.812 25.2583C33.1701 25.4015 33.4816 25.6056 33.7466 25.8706C34.0151 26.1356 34.2264 26.4561 34.3804 26.832C34.5343 27.2044 34.6113 27.618 34.6113 28.0728C34.6113 28.5454 34.5343 28.9715 34.3804 29.3511C34.2264 29.7271 34.0151 30.0475 33.7466 30.3125C33.4816 30.5739 33.1701 30.7744 32.812 30.9141C32.4575 31.0537 32.078 31.1235 31.6733 31.1235C31.5444 31.1235 31.4155 31.1092 31.2866 31.0806C31.1613 31.0519 31.036 31.0143 30.9106 30.9678C30.7889 30.9176 30.6672 30.8621 30.5454 30.8013C30.4272 30.7404 30.3127 30.6777 30.2017 30.6133V33.1914ZM33.1396 28.0728C33.1396 27.8293 33.1003 27.6108 33.0215 27.4175C32.9463 27.2241 32.8424 27.0612 32.71 26.9287C32.5775 26.7926 32.4217 26.6888 32.2427 26.6172C32.0636 26.5456 31.8739 26.5098 31.6733 26.5098C31.4728 26.5098 31.283 26.5456 31.104 26.6172C30.9285 26.6888 30.7746 26.7926 30.6421 26.9287C30.5096 27.0612 30.404 27.2241 30.3252 27.4175C30.25 27.6108 30.2124 27.8293 30.2124 28.0728C30.2124 28.3055 30.25 28.5186 30.3252 28.7119C30.404 28.9053 30.5096 29.07 30.6421 29.2061C30.7746 29.3421 30.9285 29.4478 31.104 29.5229C31.283 29.5981 31.4728 29.6357 31.6733 29.6357C31.8739 29.6357 32.0636 29.5981 32.2427 29.5229C32.4217 29.4478 32.5775 29.3421 32.71 29.2061C32.8424 29.07 32.9463 28.9053 33.0215 28.7119C33.1003 28.5186 33.1396 28.3055 33.1396 28.0728Z" fill="white"/>
</svg>
